<svg width="52" height="24" viewBox="0 0 52 24" fill="none" xmlns="http://www.w3.org/2000/svg">
<g clip-path="url(#clip0_791_84788)">
<path d="M50.9441 18.03C50.6212 18.03 50.3603 17.7542 50.3603 17.4163V10.5099L48.7994 10.7515V17.365C48.7994 18.3272 49.5457 19.1055 50.4651 19.1055H51.3332V18.03H50.9441Z" fill="#ED1C24"/>
<path d="M32.874 19.1034H34.4349V12.5327L32.874 12.7721V19.1034Z" fill="#ED1C24"/>
<path d="M35.4249 13.6852V19.1055H36.988V14.8077L36.9794 14.301C36.9794 13.4991 38.7798 13.6531 38.7798 13.6531L39.3421 12.4236C36.849 11.7159 35.4249 13.6873 35.4249 13.6873V13.6852Z" fill="#ED1C24"/>
<path d="M41.399 17.4142V13.6082H42.3377V12.4129H41.399V10.5078L39.8381 10.7494V17.3629C39.8381 18.3251 40.5844 19.1034 41.5038 19.1034H42.3719V18.0279H41.9828C41.6599 18.0279 41.399 17.752 41.399 17.4142Z" fill="#ED1C24"/>
<path d="M33.6545 9.9326C33.1199 9.9326 32.688 10.3645 32.688 10.8991C32.688 11.4336 33.1199 11.8655 33.6545 11.8655C34.189 11.8655 34.6209 11.4336 34.6209 10.8991C34.6209 10.3645 34.189 9.9326 33.6545 9.9326Z" fill="#ED1C24"/>
<path d="M45.329 17.8889C44.292 17.4912 44.369 15.9431 44.369 15.9431H48.1194C48.1194 13.9995 47.6511 12.3188 45.7631 12.3188C43.8751 12.3188 42.7546 13.7044 42.7546 15.648C42.7546 17.5917 43.952 19.1055 45.8401 19.1055C46.5906 19.1055 47.6169 18.8575 48.1793 18.4363L47.6447 17.5061C47.6447 17.5061 46.3639 18.2866 45.3269 17.891L45.329 17.8889ZM45.5471 13.5098C46.443 13.5098 46.6227 14.7757 46.6227 14.7757H44.4716C44.4716 14.7757 44.6512 13.5098 45.5471 13.5098Z" fill="#ED1C24"/>
<path d="M29.7822 12.3659C29.7822 12.3659 29.1215 12.3744 28.4565 12.5027C27.8322 12.6225 27.2057 13.0523 27.2057 13.0523L27.7017 14.0722C27.7017 14.0722 28.3411 13.4713 29.3396 13.4713C30.6717 13.4713 30.4836 14.8056 30.4836 14.8056C27.8899 14.2732 26.6155 15.6053 26.6519 16.978C26.669 17.6024 26.7524 18.2331 27.4623 18.7014C29.733 20.2046 31.9354 18.0193 31.9354 18.0193V14.3951C31.9354 13.3088 30.9711 12.3638 29.7801 12.3638L29.7822 12.3659ZM30.4493 17.7991C30.4493 17.7991 29.4251 18.278 28.7687 17.8846C28.1123 17.4912 28.1893 16.4178 28.8072 16.0842C29.4251 15.7507 30.4493 15.9559 30.4493 15.9559V17.7991Z" fill="#ED1C24"/>
<path d="M5.2846 5.42503C-1.78004 11.8247 0.766568 13.9543 2.45789 14.7754C4.14708 15.5965 6.40075 14.4697 9.21677 12.2673C12.0328 10.0649 18.5522 5.81632 20.0896 7.93101C21.6248 10.0478 21.659 14.2473 15.0712 19.7767C8.48336 25.3061 7.11705 22.0731 10.3693 19.5372C13.6215 17.0013 13.0228 15.4746 11.4875 15.2522C9.87534 15.0192 8.48336 15.4062 7.05076 18.0362C7.05076 18.0362 4.85696 22.2741 7.66443 23.3603C9.62089 24.1173 15.3962 21.7866 19.6384 17.5145C22.7645 14.367 25.0502 10.6038 24.0923 5.58326C22.8372 -0.996013 12.3514 -0.978908 5.28674 5.42289L5.2846 5.42503Z" fill="#ED1C24"/>
</g>
<defs>
<clipPath id="clip0_791_84788">
<rect width="50.7461" height="22.866" fill="white" transform="translate(0.587036 0.637802)"/>
</clipPath>
</defs>
</svg>
