<svg width="117" height="21" viewBox="0 0 117 21" fill="none" xmlns="http://www.w3.org/2000/svg">
<path d="M114.472 1.59106C112.998 0.580646 110.765 0.0710591 107.84 0.0710591H100.177L97.3284 15.5361H87.2902L87.9354 12.0274H93.9822L94.6987 8.08661L88.6554 8.0953L89.3023 4.60227H95.5309L96.3596 0.0719618H83.7108L81.0064 14.7415H76.3646L79.0872 0.0711903H72.4752L69.7709 14.7408H65.2491L67.9743 0.0711903H61.3657L58.5136 15.5363H48.4032L49.0424 12.0276H55.1135L55.8309 8.10911L49.7656 8.10303L50.4091 4.60305H56.7074L57.5309 0.070816H18.115L15.8715 12.3257L11.4037 0.070816H4.54362L0.85144 20.0708H7.40289L9.63768 7.47794L13.9732 20.0708H37.453L40.3078 4.60112H43.9799L41.1252 20.0708H102.905L104.696 10.3058L107.594 20.0708H114.149L111.146 12.0916L111.833 11.9437C113.346 11.6194 114.526 10.9229 115.348 9.87855C116.169 8.82465 116.587 7.47158 116.587 5.8463C116.587 3.95412 115.895 2.56197 114.471 1.5899L114.472 1.59106ZM31.7518 15.5361H21.7233L22.3711 12.0274H28.6614L29.3744 8.07542H23.1447L23.7447 4.60325H33.7586L31.7499 15.5361L31.7518 15.5361ZM109.071 8.7995C108.412 9.26037 107.457 9.4847 106.15 9.4847H104.854L105.848 4.11762H106.801C107.886 4.11762 108.677 4.29154 109.224 4.64631C109.65 4.92457 110.157 5.47502 110.157 6.51587C110.155 7.77501 109.565 8.45152 109.07 8.79935L109.071 8.7995Z" fill="#83BA3B"/>
</svg>
